<svg width="20" height="11" viewBox="0 0 20 11" fill="none" 
  xmlns="http://www.w3.org/2000/svg">
  <path fill-rule="evenodd" clip-rule="evenodd" d="M18.9448 4.88885H2.08658L5.93233 1.0431C6.17097 0.804457 6.17097 0.417621 5.93233 0.17898C5.69369 -0.0596601 5.30654 -0.0596601 5.0679 0.17898L0.17898 5.0679C-0.0596601 5.30654 -0.0596601 5.69338 0.17898 5.93202C0.179592 5.93263 0.180203 5.93294 0.180814 5.93324L5.06821 10.8209C5.18738 10.9401 5.34382 11 5.50027 11C5.65671 11 5.81316 10.9401 5.93233 10.8209C6.17097 10.5823 6.17097 10.1952 5.93233 9.95652L2.08688 6.11108H18.9448C19.2821 6.11108 19.5559 5.8373 19.5559 5.49996C19.5559 5.16263 19.2821 4.88885 18.9448 4.88885Z" fill="#2C2605"/>
</svg>
