<svg width="17" height="15" viewBox="0 0 17 15" fill="none" 
  xmlns="http://www.w3.org/2000/svg">
  <path fill-rule="evenodd" clip-rule="evenodd" d="M4.67935 1.05259C3.70539 1.05259 2.79013 1.44 2.10168 2.14371C0.677716 3.59845 0.677716 5.96379 2.10116 7.41802L8.27573 13.7276L14.4498 7.41802C15.8732 5.96431 15.8732 3.59793 14.4498 2.14371C13.7613 1.44 12.8461 1.05259 11.8724 1.05259C10.8984 1.05259 9.98315 1.44 9.29418 2.14371C9.07953 2.36328 8.88711 2.62034 8.72341 2.90845C8.6303 3.0706 8.46013 3.17043 8.27573 3.17043C8.09134 3.17043 7.92065 3.0706 7.8278 2.90845C7.66409 2.62034 7.4722 2.36328 7.25703 2.14371C6.56858 1.44 5.6528 1.05259 4.67935 1.05259ZM8.27573 15C8.13789 15 8.00599 14.9439 7.90901 14.8448L1.36823 8.16103C-0.456078 6.29716 -0.456078 3.26509 1.36823 1.40121C2.2522 0.497586 3.42815 0 4.67935 0C5.93004 0 7.10651 0.497586 7.99047 1.40121C8.09004 1.50259 8.18496 1.60966 8.27573 1.72241C8.36677 1.60966 8.46168 1.50259 8.56073 1.40121C9.44522 0.497586 10.6212 0 11.8724 0C13.1228 0 14.2987 0.497586 15.1832 1.40121C17.0078 3.26509 17.0078 6.29716 15.1832 8.16103L8.64194 14.8448C8.54496 14.9439 8.41332 15 8.27573 15Z" fill="white"/>
</svg>
