<svg width="19" height="19" viewBox="0 0 19 19" fill="none" 
  xmlns="http://www.w3.org/2000/svg">
  <path fill-rule="evenodd" clip-rule="evenodd" d="M3.09912 12.3357C0.549554 9.78469 0.54896 5.65158 3.09912 3.09964C5.65047 0.547698 9.78506 0.548886 12.3352 3.09905C14.8824 5.64772 14.8866 9.78409 12.3358 12.3357C9.78476 14.8871 5.65106 14.8859 3.09912 12.3357ZM18.8261 17.9862L13.5785 12.7386C16.1812 9.70661 16.0515 5.13294 13.1772 2.26126C10.1639 -0.754398 5.27403 -0.752913 2.26015 2.26067C-0.752839 5.27366 -0.754324 10.1632 2.26134 13.1765C5.13391 16.0502 9.70579 16.1824 12.739 13.5782L17.9854 18.8245L17.9862 18.8257C18.2184 19.0579 18.5939 19.0579 18.8261 18.8257C19.058 18.5945 19.058 18.2186 18.8261 17.9862Z" fill="#2C2605"/>
</svg>
